<?xml version="1.0" ?><!-- Uploaded to: SVG Repo, www.svgrepo.com, Generator: SVG Repo Mixer Tools -->
<svg width="800px" height="800px" viewBox="0 0 96 96" data-name="Your Icons" id="Your_Icons" xmlns="http://www.w3.org/2000/svg"><defs><style>.cls-1,.cls-2{fill:none;stroke:#231f20;stroke-miterlimit:10;}.cls-2{stroke-linecap:round;}</style></defs><title/><rect class="cls-1" height="40.27" rx="2" ry="2" width="13.09" x="41.64" y="19.53"/><path class="cls-1" d="M51.91,59.79v3.55a2.36,2.36,0,0,1-2.36,2.36H46.83a2.36,2.36,0,0,1-2.37-2.36V59.79"/><line class="cls-1" x1="49.71" x2="49.71" y1="19.54" y2="14.7"/><line class="cls-1" x1="46.66" x2="46.66" y1="19.54" y2="14.7"/><path class="cls-1" d="M43.64,9.59h9.09a2,2,0,0,1,2,2v3.1a0,0,0,0,1,0,0H41.64a0,0,0,0,1,0,0v-3.1A2,2,0,0,1,43.64,9.59Z"/><line class="cls-2" x1="44.46" x2="44.46" y1="23.36" y2="51.53"/><line class="cls-2" x1="48.19" x2="44.46" y1="39.7" y2="39.7"/><line class="cls-2" x1="48.19" x2="44.46" y1="47.98" y2="47.98"/><line class="cls-2" x1="48.19" x2="44.46" y1="43.84" y2="43.84"/><line class="cls-1" x1="48.19" x2="48.19" y1="66.3" y2="87.38"/></svg>